<svg xmlns="http://www.w3.org/2000/svg" xmlns:xlink="http://www.w3.org/1999/xlink" width="1920" height="1080" viewBox="0 0 1920 1080">
  <defs>
    <style>
      .cls-1 {
        clip-path: url(#clip-Web_1920_1);
      }

      .cls-2 {
        fill: rgba(247,240,46,0.31);
      }

      .cls-3 {
        fill: #fff;
      }

      .cls-4 {
        fill: rgba(247,240,46,0.32);
      }

      .cls-11, .cls-5 {
        fill: #3f3d56;
      }

      .cls-5 {
        stroke: #000;
        opacity: 0.58;
      }

      .cls-6, .cls-7 {
        fill: #6c63ff;
      }

      .cls-7 {
        opacity: 0.48;
      }

      .cls-8 {
        fill: #a0616a;
      }

      .cls-9 {
        fill: #2f2e41;
      }

      .cls-10 {
        fill: #f56347;
      }

      .cls-12 {
        fill: #ffb8b8;
      }

      .cls-13 {
        fill: #89f0e4;
      }
    </style>
    <clipPath id="clip-Web_1920_1">
      <rect width="1920" height="1080"/>
    </clipPath>
  </defs>
  <g id="Web_1920_1" data-name="Web 1920 – 1" class="cls-1">
    <rect class="cls-3" width="1920" height="1080"/>
    <g id="Grupo_1" data-name="Grupo 1" transform="translate(507 377.191)">
      <path id="Trazado_1" data-name="Trazado 1" class="cls-2" d="M139.167,693.147c16.447,12.772,37.762,13.413,58.364,11.844,2.877-.219,5.733-.476,8.563-.753.017,0,.04,0,.057-.008.136-.014.272-.028.4-.036l1.747-.177-.137.281-.429.872c.154-.292.308-.578.462-.87.045-.088.1-.175.141-.263,5.337-10.011,10.631-20.391,11.981-31.823,1.4-11.866-2.527-25.3-12.215-31.134a18.812,18.812,0,0,0-4.012-1.811c-.579-.19-1.167-.344-1.761-.48a20.056,20.056,0,0,0-20.16,6.991,23.932,23.932,0,0,0-4.209,22.372c-8.214-9.079-6.682-23.807-3.848-36.117s6.276-26.006.5-37.062a22.79,22.79,0,0,0-15.189-11.51c-.194-.045-.388-.09-.583-.129a28.724,28.724,0,0,0-21.971,4.15c-12.112,8.227-18.333,23.827-20.352,39.107C113.268,651.183,120.467,678.626,139.167,693.147Z" transform="translate(-94.999 -221.864)"/>
      <path id="Trazado_2" data-name="Trazado 2" class="cls-3" d="M147.752,653.752a59.653,59.653,0,0,0,3.588,15.792,49.469,49.469,0,0,0,7.009,12.34,58.207,58.207,0,0,0,22.217,17.268,78.539,78.539,0,0,0,20.241,5.862c2.877-.219,5.733-.476,8.563-.753.017,0,.04,0,.057-.008.136-.014.272-.028.4-.036l1.747-.177-.137.281-.429.872c.154-.292.308-.578.462-.87.045-.088.1-.175.141-.263a52.04,52.04,0,0,1-4.246-64.768c-.579-.19-1.167-.344-1.761-.48a52.811,52.811,0,0,0-4.389,7.836,54.378,54.378,0,0,0-4.068,31.616,53.526,53.526,0,0,0,12.213,25.916c-.549-.042-1.1-.09-1.647-.143-10.284-.939-20.548-3.322-29.875-8.2a54.888,54.888,0,0,1-20.157-17.828c-5.649-8.4-8.139-18.5-8.566-28.767a130.484,130.484,0,0,1,3.2-32.866A144.965,144.965,0,0,1,163.068,584.8a1.033,1.033,0,0,0-.365-1.309.737.737,0,0,0-.583-.129.7.7,0,0,0-.45.415c-.588,1.237-1.165,2.475-1.72,3.726a147.188,147.188,0,0,0-10.132,32.758C147.773,631.189,146.681,642.623,147.752,653.752Z" transform="translate(-98.273 -221.887)"/>
      <path id="Trazado_3" data-name="Trazado 3" class="cls-4" d="M1053.791,683.029c-24.816,19.27-56.975,20.238-88.061,17.871-4.341-.33-8.651-.718-12.921-1.135-.026-.007-.06,0-.086-.012-.205-.021-.411-.042-.607-.055-.881-.089-1.763-.178-2.636-.267l.206.424.647,1.316c-.233-.441-.465-.872-.7-1.312-.068-.132-.145-.264-.213-.4-8.053-15.105-16.04-30.766-18.077-48.015-2.106-17.9,3.812-38.176,18.43-46.976a28.37,28.37,0,0,1,6.053-2.733c.874-.286,1.76-.519,2.656-.724,11.163-2.672,22.794,1.361,30.418,10.547a36.108,36.108,0,0,1,6.351,33.756c12.393-13.7,10.082-35.921,5.806-54.494s-9.469-39.238-.757-55.92c4.843-9.285,13.359-15.046,22.917-17.367.293-.068.586-.136.88-.2a43.34,43.34,0,0,1,33.151,6.261c18.275,12.414,27.661,35.95,30.708,59.006C1092.869,619.712,1082.006,661.117,1053.791,683.029Z" transform="translate(-182.489 -219.617)"/>
      <path id="Trazado_4" data-name="Trazado 4" class="cls-3" d="M1047.918,623.588a90.01,90.01,0,0,1-5.414,23.827,74.645,74.645,0,0,1-10.575,18.619,87.824,87.824,0,0,1-33.521,26.054,118.49,118.49,0,0,1-30.539,8.845c-4.341-.33-8.651-.717-12.921-1.135-.026-.007-.06,0-.086-.012-.205-.021-.411-.042-.607-.055-.881-.089-1.763-.178-2.636-.267l.206.424.647,1.316c-.233-.441-.465-.872-.7-1.312-.068-.132-.145-.264-.213-.4,15.95-17.13,23.2-41.533,19.457-65.465a78.545,78.545,0,0,0-13.051-32.258c.874-.286,1.76-.519,2.656-.724a79.67,79.67,0,0,1,6.622,11.823,82.047,82.047,0,0,1,6.137,47.7,80.761,80.761,0,0,1-18.427,39.1c.829-.063,1.666-.136,2.485-.216,15.517-1.417,31-5.013,45.077-12.378a82.815,82.815,0,0,0,30.413-26.9c8.524-12.672,12.28-27.914,12.925-43.4.684-16.585-1.312-33.461-4.823-49.59a218.722,218.722,0,0,0-16.226-47.642,1.559,1.559,0,0,1,.551-1.976,1.112,1.112,0,0,1,.88-.2,1.054,1.054,0,0,1,.679.627c.887,1.866,1.758,3.734,2.6,5.622a222.079,222.079,0,0,1,15.288,49.427C1047.892,589.544,1049.532,606.795,1047.918,623.588Z" transform="translate(-184.629 -219.651)"/>
      <path id="Trazado_5" data-name="Trazado 5" class="cls-5" d="M764.534,483.465H393.454a3.062,3.062,0,0,1-2.934-3.162V193.191a3.061,3.061,0,0,1,2.933-3.163H764.533a3.062,3.062,0,0,1,2.934,3.162V480.3a3.062,3.062,0,0,1-2.933,3.162ZM393.454,191.96a1.192,1.192,0,0,0-1.142,1.231V480.3a1.192,1.192,0,0,0,1.142,1.23H764.533a1.193,1.193,0,0,0,1.141-1.231V193.191a1.192,1.192,0,0,0-1.142-1.23H393.454Z" transform="translate(-124.97 -190.028)"/>
      <ellipse id="Elipse_2" data-name="Elipse 2" class="cls-6" cx="5.691" cy="6.135" rx="5.691" ry="6.135" transform="translate(272.373 265.633)"/>
      <ellipse id="Elipse_3" data-name="Elipse 3" class="cls-6" cx="5.691" cy="6.135" rx="5.691" ry="6.135" transform="translate(272.373 5.561)"/>
      <ellipse id="Elipse_4" data-name="Elipse 4" class="cls-6" cx="5.691" cy="6.135" rx="5.691" ry="6.135" transform="translate(625.244 5.561)"/>
      <ellipse id="Elipse_5" data-name="Elipse 5" class="cls-7" cx="5.691" cy="6.135" rx="5.691" ry="6.135" transform="translate(625.244 265.633)"/>
      <path id="Trazado_10" data-name="Trazado 10" class="cls-8" d="M220.779,505.163h10.988l5.227-45.686H220.777Z" transform="translate(-23.551 -34.1)"/>
      <path id="Trazado_11" data-name="Trazado 11" class="cls-9" d="M0,0H34.534V14.382H13.343C5.974,14.383,0,7.943,0,0H0Z" transform="translate(229.4 482.061) rotate(179.997)"/>
      <path id="Trazado_12" data-name="Trazado 12" class="cls-8" d="M174.779,505.163h10.988l5.227-45.686H174.777Z" transform="translate(-18.129 -34.1)"/>
      <path id="Trazado_13" data-name="Trazado 13" class="cls-9" d="M0,0H34.534V14.382H13.343C5.974,14.383,0,7.943,0,0H0Z" transform="translate(188.309 482.06) rotate(179.997)"/>
      <path id="Trazado_14" data-name="Trazado 14" class="cls-8" d="M267.139,551.519a10.494,10.494,0,0,0,4.344-7.429,10.908,10.908,0,0,0-2.5-8.36l7.235-110.676-20.841,2.179-.572,108.385a11.048,11.048,0,0,0-.387,13.854,9.2,9.2,0,0,0,12.717,2.047Z" transform="translate(-109.147 -209.238)"/>
      <path id="Trazado_15" data-name="Trazado 15" class="cls-9" d="M308.45,668.023a4.169,4.169,0,0,1-4.005-3.831l-6.387-57.583a3.114,3.114,0,0,0-6.214-.124L283.8,661.618a4.119,4.119,0,0,1-3.984,3.672H266.773a3.892,3.892,0,0,1-2.862-1.285,4.529,4.529,0,0,1-1.171-3.1l6.224-122.246a4.229,4.229,0,0,1,3.454-4.27l48.393-7.572a3.838,3.838,0,0,1,3.229,1.025,4.5,4.5,0,0,1,1.384,3.308l-.844,131.93a4.214,4.214,0,0,1-3.841,4.312l-12.1.622Q308.546,668.023,308.45,668.023Z" transform="translate(-110.773 -219.97)"/>
      <path id="Trazado_16" data-name="Trazado 16" class="cls-10" d="M282.615,538.995a37.81,37.81,0,0,1-13.646-2.619,4.3,4.3,0,0,1-2.615-3.869c-.417-9.987-2.86-61.391-9.971-92.746-2.826-12.577,1.641-25.753,11.326-33.4q.574-.444,1.17-.873a27.174,27.174,0,0,1,28.139-2.378c9.429,4.548,16,14.039,17.355,25.077l11.6,92.8a4.572,4.572,0,0,1-.835,3.286,3.893,3.893,0,0,1-2.737,1.616c-4.018.432-12.351,2.111-23.016,8.5a32.244,32.244,0,0,1-16.765,4.613Z" transform="translate(-110.009 -207.503)"/>
      <path id="Trazado_17" data-name="Trazado 17" class="cls-10" d="M267.378,462.614,248.3,457.037a4.4,4.4,0,0,1-2.837-5.334l6.708-26.669c1.488-5.917,6.88-9.667,12.495-8.691s9.639,6.364,9.326,12.485l-1.527,29.83a4.444,4.444,0,0,1-1.666,3.285,3.8,3.8,0,0,1-3.417.671Z" transform="translate(-108.437 -206.576)"/>
      <ellipse id="Elipse_6" data-name="Elipse 6" class="cls-8" cx="22.013" cy="23.729" rx="22.013" ry="23.729" transform="translate(157.633 139.955)"/>
      <path id="Trazado_18" data-name="Trazado 18" class="cls-8" d="M375.917,413.586a10.909,10.909,0,0,0-.215,1.585l-38.5,23.942-9.358-5.807-9.977,14.078,20.02,15.381,43.924-37.353a8.966,8.966,0,0,0,10.361-2.853,10.77,10.77,0,0,0,1.191-11.455,9.24,9.24,0,0,0-9.518-5.254,9.7,9.7,0,0,0-7.927,7.736Z" transform="translate(-116.674 -206.012)"/>
      <path id="Trazado_19" data-name="Trazado 19" class="cls-10" d="M331.491,440.378l-16.585,11.6a3.866,3.866,0,0,1-5.579-1.28L295.372,427.52a12.625,12.625,0,0,1,2.33-15.831,10.529,10.529,0,0,1,14.85.841l19.6,21.127a4.552,4.552,0,0,1,1.159,3.529,4.4,4.4,0,0,1-1.816,3.191Z" transform="translate(-114.051 -205.997)"/>
      <path id="Trazado_20" data-name="Trazado 20" class="cls-9" d="M275.034,383.178A7,7,0,0,0,287.3,378.92a8.384,8.384,0,0,0-.009-1.5c-.276-2.853-1.806-5.444-1.439-8.457a4.64,4.64,0,0,1,.753-2.076c3.273-4.724,10.955,2.113,14.043-2.163,1.894-2.622-.332-6.75,1.121-9.681,1.918-3.868,7.6-1.96,11.162-4.078,3.964-2.357,3.727-8.913,1.118-12.9-3.182-4.863-8.762-7.458-14.272-7.832s-10.982,1.232-16.126,3.392c-5.845,2.455-11.641,5.848-15.237,11.388-4.374,6.737-4.795,15.794-2.607,23.672C267.139,373.473,271.68,379.327,275.034,383.178Z" transform="translate(-110.956 -200.392)"/>
      <path id="Trazado_21" data-name="Trazado 21" class="cls-11" d="M434.971,709.9H93.491a.969.969,0,0,1,0-1.932h341.48a.969.969,0,0,1,0,1.932Z" transform="translate(-92.595 -226.11)"/>
      <path id="Trazado_22" data-name="Trazado 22" class="cls-11" d="M1060.976,709.9H719.5a.969.969,0,0,1,0-1.932h341.48a.969.969,0,0,1,0,1.932Z" transform="translate(-160.465 -226.11)"/>
      <path id="Trazado_23" data-name="Trazado 23" class="cls-12" d="M926.837,518.237a9.889,9.889,0,0,1-4.884-6.615,10.614,10.614,0,0,1,1.569-8.283l-6.931-73.049H931.57l5.508,71.328a10.6,10.6,0,0,1,1.727,13.213,8.934,8.934,0,0,1-11.969,3.406Z" transform="translate(-181.002 -208.577)"/>
      <ellipse id="Elipse_7" data-name="Elipse 7" class="cls-12" cx="21.192" cy="22.844" rx="21.192" ry="22.844" transform="translate(711.408 140.189)"/>
      <path id="Trazado_24" data-name="Trazado 24" class="cls-13" d="M903.264,471.551l-31.629-7.445a4.119,4.119,0,0,1-3.049-3.874c-.365-7.608-.628-27.288,4.809-45.661a27.176,27.176,0,0,1,13.037-16.325,23.985,23.985,0,0,1,19.947-1.3h0a26.614,26.614,0,0,1,15.237,15.586,29.65,29.65,0,0,1-.654,22.631c-7.014,15.525-11.431,26.768-13.129,33.418a3.865,3.865,0,0,1-4.568,2.971Z" transform="translate(-175.458 -205.615)"/>
      <path id="Trazado_25" data-name="Trazado 25" class="cls-12" d="M779.65,507.283H769.072L764.04,463.3h15.612Z" transform="translate(-81.5 -34.23)"/>
      <path id="Trazado_26" data-name="Trazado 26" class="cls-9" d="M759.737,505.453h20.4V519.3H746.892c0-7.647,5.751-13.846,12.845-13.846Z" transform="translate(-79.716 -35.658)"/>
      <path id="Trazado_27" data-name="Trazado 27" class="cls-12" d="M895.618,492.177l-9.269,5.493-24.069-35.926,13.682-8.108Z" transform="translate(-92.377 -33.903)"/>
      <path id="Trazado_28" data-name="Trazado 28" class="cls-9" d="M13.078-.423l20.77-.671L33.425,12.52-.423,13.614h0C-.189,6.095,5.855-.189,13.078-.423Z" transform="translate(774.64 471.507) rotate(-28.801)"/>
      <path id="Trazado_29" data-name="Trazado 29" class="cls-9" d="M871.535,666.313l-16.285-1.352a4.025,4.025,0,0,1-3.567-3.767c-2.321-26.094-12.5-158.326,15.037-199.038l.077-.114.123-.049c.247-.1,24.807-9.538,38.9,7.763a4.435,4.435,0,0,1,.747,4.071l-.538,1.738a3.45,3.45,0,0,0,.428,2.951c3.911,5.7,17.073,27.646,22.246,70.805a3.424,3.424,0,0,0,.2.8l38.193,101.135a4.486,4.486,0,0,1-.035,3.247,4.026,4.026,0,0,1-2.179,2.242l-12.017,4.935a3.779,3.779,0,0,1-4.783-1.892L892.94,551.967a2.109,2.109,0,0,0-2.291-1.162,2.26,2.26,0,0,0-1.737,1.985L875.684,662.679a4,4,0,0,1-3.847,3.647C871.736,666.326,871.636,666.322,871.535,666.313Z" transform="translate(-173.879 -217.685)"/>
      <path id="Trazado_30" data-name="Trazado 30" class="cls-12" d="M818.685,392.119a10.5,10.5,0,0,1,.206,1.526l37.066,23.049,9.009-5.591,9.6,13.553-15.057,11.568a6.508,6.508,0,0,1-8.282-.217l-38.221-32.5a8.632,8.632,0,0,1-9.976-2.746,10.37,10.37,0,0,1-1.147-11.03,8.9,8.9,0,0,1,9.165-5.059,9.343,9.343,0,0,1,7.632,7.45Z" transform="translate(-168.286 -204.373)"/>
      <path id="Trazado_31" data-name="Trazado 31" class="cls-13" d="M862.9,414.891a4.173,4.173,0,0,1,1.908-2.814l17.009-10.252a10.271,10.271,0,0,1,15.13,2.054,12.24,12.24,0,0,1-1.906,16.309l-13.562,15.18a3.739,3.739,0,0,1-3.009,1.276,3.807,3.807,0,0,1-2.862-1.622l-11.98-16.736a4.433,4.433,0,0,1-.73-3.4Z" transform="translate(-174.809 -205.182)"/>
      <path id="Trazado_32" data-name="Trazado 32" class="cls-6" d="M911.774,446.824a4.3,4.3,0,0,1-1.438-3.121l-.61-21c-1.076-6.314,2.8-12.372,8.659-13.531s11.478,3.02,12.553,9.334l6.256,19.966a4.474,4.474,0,0,1-.335,3.467,3.9,3.9,0,0,1-2.654,1.991l-19.3,3.756a3.675,3.675,0,0,1-3.132-.865Z" transform="translate(-184.402 -205.904)"/>
      <path id="Trazado_33" data-name="Trazado 33" class="cls-9" d="M906.371,358.489c-5.447,4.018-12.6,8.149-18.162,3.87a11.438,11.438,0,0,1-3.323-12.579c2.664-8.211,9.983-11.826,16.981-14.6,9.1-3.6,19-6.468,28.4-3.888s17.693,12.382,16,22.669c-1.363,8.272-8.6,15.156-7.575,23.484,1.034,8.382,9.779,12.794,17.5,14.292s16.36,1.979,21.908,7.957c7.078,7.626,5.31,21.255-1.35,29.306s-16.711,11.7-26.45,14.181c-12.9,3.287-26.86,5.015-39.115-.441s-21.792-20.14-18.242-33.911c1.5-5.817,5.032-10.732,8.446-15.518s6.871-9.79,8.173-15.662c1.085-4.893.282-10.574-2.728-14.244a4.378,4.378,0,0,1-.513-4.824Z" transform="translate(-177.644 -201.281)"/>
    </g>
  </g>
</svg>
