<svg xmlns="http://www.w3.org/2000/svg" xmlns:xlink="http://www.w3.org/1999/xlink" width="1920" height="1080" viewBox="0 0 1920 1080">
  <defs>
    <style>
      .cls-1 {
        clip-path: url(#clip-Web_1920_1);
      }

      .cls-2 {
        fill: rgba(247,240,46,0.31);
      }

      .cls-3 {
        fill: #fff;
      }

      .cls-4 {
        fill: rgba(247,240,46,0.32);
      }

      .cls-11, .cls-5 {
        fill: #3f3d56;
      }

      .cls-5 {
        stroke: #000;
        opacity: 0.58;
      }

      .cls-6, .cls-7 {
        fill: #6c63ff;
      }

      .cls-7 {
        opacity: 0.48;
      }

      .cls-8 {
        fill: #a0616a;
      }

      .cls-9 {
        fill: #2f2e41;
      }

      .cls-10 {
        fill: #f56347;
      }

      .cls-12 {
        fill: #ffb8b8;
      }

      .cls-13 {
        fill: #89f0e4;
      }
    </style>
    <clipPath id="clip-Web_1920_1">
      <rect width="1920" height="1080"/>
    </clipPath>
  </defs>
  <g id="Web_1920_1" data-name="Web 1920 – 1" class="cls-1">
    <rect class="cls-3" width="1920" height="1080"/>
    <g id="Grupo_1" data-name="Grupo 1" transform="translate(459 472.565)">
      <path id="Trazado_1" data-name="Trazado 1" class="cls-2" d="M141.875,697.022c18.351,13.22,42.132,13.884,65.119,12.26,3.21-.226,6.4-.492,9.555-.779.019-.005.044,0,.064-.008.152-.014.3-.029.449-.038l1.949-.183-.153.291-.479.9c.172-.3.344-.6.516-.9.051-.091.107-.181.158-.272,5.955-10.363,11.861-21.106,13.368-32.939,1.557-12.282-2.819-26.189-13.629-32.226a21.817,21.817,0,0,0-4.476-1.875c-.646-.2-1.3-.356-1.964-.5a23.38,23.38,0,0,0-27.19,30.393c-9.165-9.4-7.455-24.643-4.294-37.384s7-26.918.56-38.362c-3.581-6.37-9.879-10.322-16.947-11.914-.217-.047-.433-.093-.651-.134a34.121,34.121,0,0,0-24.514,4.3c-13.514,8.516-20.455,24.662-22.707,40.479C112.979,653.586,121.011,681.991,141.875,697.022Z" transform="translate(-92.595 -179.895)"/>
      <path id="Trazado_2" data-name="Trazado 2" class="cls-3" d="M147.8,656.222a58,58,0,0,0,4,16.346,50.365,50.365,0,0,0,7.82,12.773,64.531,64.531,0,0,0,24.788,17.873,92.878,92.878,0,0,0,22.583,6.068c3.21-.226,6.4-.492,9.555-.779.019-.005.044,0,.064-.008.152-.014.3-.029.449-.038l1.949-.183-.153.291-.479.9c.172-.3.344-.6.516-.9.051-.091.107-.181.158-.272a50.886,50.886,0,0,1-4.737-67.039c-.647-.2-1.3-.356-1.964-.5a53.687,53.687,0,0,0-4.9,8.111,52.6,52.6,0,0,0-4.538,32.725,53.781,53.781,0,0,0,13.626,26.825c-.613-.043-1.232-.093-1.838-.148-11.474-.972-22.926-3.439-33.333-8.492a60.033,60.033,0,0,1-22.49-18.453c-6.3-8.693-9.081-19.149-9.558-29.776a125.663,125.663,0,0,1,3.567-34.019,142.791,142.791,0,0,1,12-32.683,1.027,1.027,0,0,0-.408-1.355.873.873,0,0,0-.651-.134.76.76,0,0,0-.5.43c-.656,1.28-1.3,2.562-1.919,3.857a144.41,144.41,0,0,0-11.3,33.908C147.824,632.867,146.606,644.7,147.8,656.222Z" transform="translate(-92.595 -179.895)"/>
      <path id="Trazado_3" data-name="Trazado 3" class="cls-4" d="M1068.01,688.875c-27.688,19.946-63.569,20.948-98.253,18.5-4.843-.342-9.652-.743-14.416-1.175-.029-.007-.067,0-.1-.012-.229-.022-.458-.044-.677-.057-.983-.092-1.967-.184-2.941-.276l.23.439.722,1.362c-.26-.456-.519-.9-.779-1.359-.076-.137-.162-.273-.238-.41-8.985-15.635-17.9-31.845-20.169-49.7-2.35-18.531,4.254-39.515,20.563-48.623a32.912,32.912,0,0,1,6.754-2.828c.975-.3,1.964-.537,2.964-.75a35.277,35.277,0,0,1,41.024,45.857c13.828-14.179,11.248-37.181,6.478-56.405s-10.565-40.615-.844-57.881c5.4-9.611,14.906-15.574,25.569-17.976.327-.071.654-.141.982-.2a51.483,51.483,0,0,1,36.988,6.481c20.39,12.849,30.862,37.211,34.261,61.075C1111.61,623.337,1099.49,666.2,1068.01,688.875Z" transform="translate(-105.138 -179.895)"/>
      <path id="Trazado_4" data-name="Trazado 4" class="cls-3" d="M1059.07,627.314a87.52,87.52,0,0,1-6.04,24.662,75.994,75.994,0,0,1-11.8,19.272c-9.951,11.971-23.11,20.971-37.4,26.968a140.134,140.134,0,0,1-34.074,9.155c-4.843-.342-9.652-.743-14.416-1.175-.029-.007-.067,0-.1-.012-.229-.022-.458-.044-.677-.057-.983-.092-1.967-.184-2.941-.276l.23.439.722,1.362c-.26-.456-.519-.9-.779-1.359-.076-.137-.162-.273-.238-.41a76.778,76.778,0,0,0,7.147-101.15c.975-.3,1.964-.537,2.964-.75a81,81,0,0,1,7.389,12.238A79.369,79.369,0,0,1,975.91,665.6a81.147,81.147,0,0,1-20.559,40.474c.925-.065,1.859-.141,2.773-.224,17.313-1.467,34.59-5.189,50.293-12.812a90.579,90.579,0,0,0,33.933-27.842c9.51-13.116,13.7-28.893,14.421-44.927.763-17.167-1.464-34.635-5.382-51.329a215.441,215.441,0,0,0-18.1-49.313,1.549,1.549,0,0,1,.615-2.045,1.317,1.317,0,0,1,.982-.2,1.147,1.147,0,0,1,.757.649c.99,1.932,1.961,3.865,2.9,5.819a217.89,217.89,0,0,1,17.057,51.161C1059.04,592.076,1060.87,609.932,1059.07,627.314Z" transform="translate(-105.138 -179.895)"/>
      <path id="Trazado_5" data-name="Trazado 5" class="cls-5" d="M807.819,493.758H393.794a3.281,3.281,0,0,1-3.273-3.272V193.3a3.281,3.281,0,0,1,3.273-3.273H807.818a3.281,3.281,0,0,1,3.273,3.272V490.485a3.281,3.281,0,0,1-3.272,3.273ZM393.794,192.028a1.277,1.277,0,0,0-1.274,1.274V490.484a1.278,1.278,0,0,0,1.275,1.273H807.818a1.278,1.278,0,0,0,1.273-1.274V193.3a1.277,1.277,0,0,0-1.274-1.273H393.794Z" transform="translate(-98.883 -190.028)"/>
      <circle id="Elipse_2" data-name="Elipse 2" class="cls-6" cx="6.35" cy="6.35" r="6.35" transform="translate(301.076 291.464)"/>
      <circle id="Elipse_3" data-name="Elipse 3" class="cls-6" cx="6.35" cy="6.35" r="6.35" transform="translate(301.076 5.756)"/>
      <circle id="Elipse_4" data-name="Elipse 4" class="cls-6" cx="6.35" cy="6.35" r="6.35" transform="translate(691.132 5.756)"/>
      <circle id="Elipse_5" data-name="Elipse 5" class="cls-7" cx="6.35" cy="6.35" r="6.35" transform="translate(691.132 291.464)"/>
      <path id="Trazado_10" data-name="Trazado 10" class="cls-8" d="M220.779,506.765h12.26l5.832-47.288H220.777Z" transform="translate(-2.778 10.133)"/>
      <path id="Trazado_11" data-name="Trazado 11" class="cls-9" d="M0,0H38.531V14.887H14.887A14.887,14.887,0,0,1,0,0H0Z" transform="translate(253.878 528.282) rotate(179.997)"/>
      <path id="Trazado_12" data-name="Trazado 12" class="cls-8" d="M174.779,506.765h12.26l5.832-47.288H174.777Z" transform="translate(0 10.133)"/>
      <path id="Trazado_13" data-name="Trazado 13" class="cls-9" d="M0,0H38.531V14.887H14.887A14.887,14.887,0,0,1,0,0H0Z" transform="translate(208.469 528.282) rotate(179.997)"/>
      <path id="Trazado_14" data-name="Trazado 14" class="cls-8" d="M268.872,555.955a10.743,10.743,0,0,0,2.062-16.343l8.072-114.558-23.253,2.255L255.115,539.5a10.8,10.8,0,0,0,13.757,16.459Z" transform="translate(-92.595 -183.879)"/>
      <path id="Trazado_15" data-name="Trazado 15" class="cls-9" d="M313.74,672.977a4.517,4.517,0,0,1-4.469-3.966l-7.126-59.6a3.5,3.5,0,0,0-6.933-.128l-8.977,57.067a4.479,4.479,0,0,1-4.445,3.8H267.24a4.5,4.5,0,0,1-4.5-4.534l6.944-126.534a4.474,4.474,0,0,1,3.854-4.42l53.994-7.838a4.5,4.5,0,0,1,5.147,4.485l-.942,136.557a4.5,4.5,0,0,1-4.286,4.463l-13.5.644Q313.847,672.977,313.74,672.977Z" transform="translate(-94.854 -179.895)"/>
      <path id="Trazado_16" data-name="Trazado 16" class="cls-10" d="M285.748,543.861a45.086,45.086,0,0,1-15.226-2.711,4.466,4.466,0,0,1-2.918-4c-.466-10.337-3.191-63.544-11.125-96a33.178,33.178,0,0,1,12.637-34.573q.64-.46,1.305-.9a32.306,32.306,0,0,1,31.4-2.461,33.219,33.219,0,0,1,19.363,25.957l12.938,96.051a4.478,4.478,0,0,1-.931,3.4,4.418,4.418,0,0,1-3.053,1.673c-4.483.447-13.78,2.185-25.68,8.8a38.125,38.125,0,0,1-18.705,4.774Z" transform="translate(-94.778 -184.368)"/>
      <path id="Trazado_17" data-name="Trazado 17" class="cls-10" d="M269.931,464.242l-21.291-5.773a4.505,4.505,0,0,1-3.166-5.521l7.485-27.6a12.4,12.4,0,0,1,24.346,3.927l-1.7,30.876a4.5,4.5,0,0,1-5.671,4.1Z" transform="translate(-92.595 -185.17)"/>
      <circle id="Elipse_6" data-name="Elipse 6" class="cls-8" cx="24.561" cy="24.561" r="24.561" transform="translate(174.183 154.266)"/>
      <path id="Trazado_18" data-name="Trazado 18" class="cls-8" d="M382.635,413.86a10.525,10.525,0,0,0-.239,1.64l-42.957,24.782L329,434.271l-11.131,14.572L340.2,464.764,389.211,426.1a10.5,10.5,0,1,0-6.576-12.241Z" transform="translate(-95.636 -185.286)"/>
      <path id="Trazado_19" data-name="Trazado 19" class="cls-10" d="M335.878,441.478l-18.5,12.009a4.505,4.505,0,0,1-6.225-1.325l-15.57-23.992a12.4,12.4,0,0,1,19.168-15.516l21.863,21.868a4.5,4.5,0,0,1-.733,6.957Z" transform="translate(-95.193 -185.354)"/>
      <path id="Trazado_20" data-name="Trazado 20" class="cls-9" d="M276.251,385.037c4.582,4.881,13.091,2.261,13.688-4.407a8.054,8.054,0,0,0-.01-1.556c-.308-2.954-2.015-5.635-1.606-8.754a4.59,4.59,0,0,1,.84-2.149c3.651-4.889,12.222,2.187,15.668-2.239,2.113-2.714-.371-6.987,1.251-10.021,2.14-4,8.479-2.029,12.454-4.221,4.423-2.439,4.158-9.225,1.247-13.353-3.551-5.034-9.776-7.72-15.923-8.107s-12.253,1.275-17.992,3.511c-6.521,2.541-12.988,6.053-17,11.788-4.88,6.973-5.35,16.348-2.909,24.5C267.442,374.992,272.509,381.051,276.251,385.037Z" transform="translate(-94.848 -186.958)"/>
      <path id="Trazado_21" data-name="Trazado 21" class="cls-11" d="M474.6,709.972H93.6a1,1,0,0,1,0-2h381a1,1,0,0,1,0,2Z" transform="translate(-92.595 -179.895)"/>
      <path id="Trazado_22" data-name="Trazado 22" class="cls-11" d="M1100.6,709.972h-381a1,1,0,0,1,0-2h381a1,1,0,0,1,0,2Z" transform="translate(-105.138 -179.895)"/>
      <path id="Trazado_23" data-name="Trazado 23" class="cls-12" d="M928.023,521.322a10.342,10.342,0,0,1-3.7-15.421l-7.733-75.611H933.3l6.146,73.83a10.4,10.4,0,0,1-11.427,17.2Z" transform="translate(-105.138 -184.337)"/>
      <circle id="Elipse_7" data-name="Elipse 7" class="cls-12" cx="23.645" cy="23.645" r="23.645" transform="translate(786.112 154.486)"/>
      <path id="Trazado_24" data-name="Trazado 24" class="cls-13" d="M907.3,474.223l-35.289-7.706a4.343,4.343,0,0,1-3.4-4.01c-.407-7.875-.7-28.246,5.365-47.263A28.639,28.639,0,0,1,910.772,397h0a28.652,28.652,0,0,1,16.271,39.558c-7.826,16.07-12.754,27.707-14.649,34.59a4.325,4.325,0,0,1-5.1,3.075Z" transform="translate(-102.803 -185.31)"/>
      <path id="Trazado_25" data-name="Trazado 25" class="cls-12" d="M781.457,508.826h-11.8L764.04,463.3h17.419Z" transform="translate(-9.608 10.133)"/>
      <path id="Trazado_26" data-name="Trazado 26" class="cls-9" d="M761.224,505.453h22.762v14.332H746.892a14.332,14.332,0,0,1,14.332-14.332Z" transform="translate(-9.581 10.133)"/>
      <path id="Trazado_27" data-name="Trazado 27" class="cls-12" d="M899.476,493.529l-10.342,5.686-26.855-37.186,15.265-8.392Z" transform="translate(-12.542 10.133)"/>
      <path id="Trazado_28" data-name="Trazado 28" class="cls-9" d="M14.332,0H37.094V14.332H0A14.332,14.332,0,0,1,14.332,0Z" transform="translate(855.023 517.359) rotate(-28.801)"/>
      <path id="Trazado_29" data-name="Trazado 29" class="cls-9" d="M874.267,673.573l-18.17-1.4a4.32,4.32,0,0,1-3.98-3.9c-2.589-27.009-13.95-163.879,16.777-206.019l.086-.118.137-.051c.275-.1,27.678-9.872,43.4,8.035a4.33,4.33,0,0,1,.834,4.214l-.6,1.8a3.355,3.355,0,0,0,.477,3.055c4.363,5.9,19.049,28.616,24.82,73.289a3.336,3.336,0,0,0,.218.829L980.88,657.991a4.332,4.332,0,0,1-2.47,5.681L965,668.781a4.356,4.356,0,0,1-5.336-1.958L898.15,555.216a2.407,2.407,0,0,0-4.494.853L878.9,669.811a4.332,4.332,0,0,1-4.292,3.775C874.492,673.586,874.38,673.582,874.267,673.573Z" transform="translate(-105.138 -179.895)"/>
      <path id="Trazado_30" data-name="Trazado 30" class="cls-12" d="M820.754,392.383a10.134,10.134,0,0,1,.23,1.579L862.34,417.82l10.052-5.787,10.716,14.029-16.8,11.974a7.7,7.7,0,0,1-9.24-.225l-42.644-33.642a10.106,10.106,0,1,1,6.331-11.785Z" transform="translate(-102.121 -185.789)"/>
      <path id="Trazado_31" data-name="Trazado 31" class="cls-13" d="M862.908,415.435a4.328,4.328,0,0,1,2.129-2.912l18.978-10.612a12.031,12.031,0,1,1,14.755,19.008l-15.131,15.712a4.332,4.332,0,0,1-6.55-.359L863.722,418.95a4.327,4.327,0,0,1-.814-3.515Z" transform="translate(-102.511 -185.621)"/>
      <path id="Trazado_32" data-name="Trazado 32" class="cls-6" d="M912.032,448.151a4.328,4.328,0,0,1-1.6-3.231l-.681-21.733a12.031,12.031,0,1,1,23.667-4.345l6.98,20.667a4.332,4.332,0,0,1-3.335,5.649l-21.532,3.888a4.327,4.327,0,0,1-3.495-.9Z" transform="translate(-108.127 -185.404)"/>
      <path id="Trazado_33" data-name="Trazado 33" class="cls-9" d="M908.935,359.478c-6.077,4.159-14.057,8.435-20.264,4.006a11.3,11.3,0,0,1-3.707-13.021c2.972-8.5,11.138-12.241,18.947-15.109,10.151-3.729,21.2-6.695,31.684-4.025s19.741,12.816,17.849,23.464c-1.521,8.563-9.6,15.687-8.452,24.308,1.154,8.676,10.911,13.243,19.525,14.793s18.253,2.049,24.444,8.236c7.9,7.893,5.925,22-1.506,30.334s-18.645,12.111-29.511,14.679c-14.4,3.4-29.968,5.191-43.641-.456s-24.314-20.847-20.353-35.1c1.673-6.021,5.614-11.109,9.423-16.062s7.666-10.133,9.119-16.211c1.211-5.065.315-10.945-3.044-14.744a4.271,4.271,0,0,1-.572-4.993Z" transform="translate(-105.138 -186.474)"/>
    </g>
  </g>
</svg>
